<svg xmlns="http://www.w3.org/2000/svg" xmlns:xlink="http://www.w3.org/1999/xlink" width="60" height="60" viewBox="0 0 60 60" version="1.1">
  <circle cx="30" cy="30" r="30" fill="#25D366"/>
  <path fill="#ffffff" d="M30 8C17.9 8 8 17.9 8 30c0 3.8 1 7.4 2.8 10.5L8 52l11.8-3.1C23 50.8 26.4 52 30 52c12.1 0 22-9.9 22-22S42.1 8 30 8zm0 40.5c-3.3 0-6.4-.9-9.1-2.5l-.6-.4-6.4 1.7 1.7-6.2-.4-.6C13.8 37.8 13 34 13 30c0-9.4 7.6-17 17-17s17 7.6 17 17-7.6 17.5-17 17.5z"/>
  <path fill="#ffffff" d="M40.8 35.6c-.5-.3-3-.1-3.5.2-.4.3-1.6 2-2 2.2-.3.2-.7.2-1.2 0-3.6-1.5-6-3.8-7.8-7-.3-.6-.1-1 .2-1.3.4-.4.8-.9 1.2-1.4.4-.5.5-.9.2-1.4l-2.3-5.5c-.3-.7-.8-.6-1.2-.6-.3 0-.7 0-1.1.1-.8.2-1.9 1.8-1.9 3.8 0 2.9 2 5.7 2.3 6.1 1.3 1.9 4.8 8 11.4 10.5 1.6.6 2.8.9 3.7 1.2 1.6.4 3 .3 4.2-.2 1.3-.6 2.5-2.3 2.8-3.4.2-.7.2-1.3.1-1.6-.3-.3-.7-.5-1.1-.7z"/>
</svg>
