<svg xmlns="http://www.w3.org/2000/svg" viewBox="0 0 24 24" width="60" height="60">
  <circle cx="12" cy="12" r="12" fill="#25D366"/>
  <path d="M17.5 14.4c-.3-.1-1.7-.8-1.9-.9-.3-.1-.5-.1-.7.1-.2.3-.7.9-.9 1-.2.2-.3.2-.6.1-.3-.1-1.3-.5-2.4-1.5-.9-.8-1.5-1.8-1.7-2.1-.2-.3 0-.5.1-.6.1-.1.3-.3.4-.5.1-.1.2-.3.2-.5 0-.2 0-.4-.1-.5L9 7.6c-.2-.5-.4-.5-.6-.5h-.5c-.2 0-.5.1-.7.3-.2.3-.9.9-.9 2.1 0 1.3.9 2.5 1 2.7.1.2 1.8 2.8 4.4 3.9.6.3 1.1.4 1.5.5.6.2 1.2.2 1.6.1.5-.1 1.5-.6 1.8-1.2.3-.6.3-1.1.2-1.2-.2-.1-.4-.2-.6-.3z" fill="white"/>
  <path d="M12 2C6.5 2 2 6.5 2 12c0 1.9.5 3.7 1.4 5.2L2 22l4.9-1.4C8.3 21.5 10.1 22 12 22c5.5 0 10-4.5 10-10S17.5 2 12 2zm0 18.3c-1.8 0-3.5-.5-5-1.4l-.3-.2-3.1.9.9-3-.2-.3C3.2 15.4 2.7 13.7 2.7 12 2.7 7.2 7.2 2.7 12 2.7s9.3 4.5 9.3 9.3-4.5 9.3-9.3 9.3z" fill="white"/>
</svg>
